<svg width="2498" height="393" viewBox="0 0 2498 393" fill="none" xmlns="http://www.w3.org/2000/svg">
<g clip-path="url(#clip0_39_6)">
<path d="M124.923 298.593C140.883 320.207 166.837 333.02 194.403 332.943C243.732 332.943 280.971 297.126 280.971 249.654C280.971 225.879 271.943 204.42 255.581 189.213C239.702 174.47 217.939 166.364 194.403 166.364C166.756 166.287 140.802 179.178 124.923 200.792L122.344 204.265L71 162.582L73.5793 159.649C103.644 125.53 147.895 105.847 194.484 106.001C279.681 105.924 349 170.378 349 249.654C349 328.775 279.681 392.998 194.484 392.998C147.976 393.23 103.725 373.7 73.6599 339.736L71.0806 336.803L122.425 295.119L124.923 298.593Z" fill="#E23A05"/>
<path d="M652.7 5.5V384H582.4V367.4C560.3 380.4 531.7 388.5 503.1 388.5C427.3 388.5 365.1 331.3 365.1 247.5C365.1 162.2 427.3 106.5 503.1 106.5C530.9 106.6 558.1 113.7 582.4 127.2V5.5H652.7ZM582.4 301.7V192.2C565.8 178.2 542.3 169.1 515.7 169.1C469 169.1 434.4 202.7 434.4 247.4C434.4 293.6 469 325.2 515.7 325.2C541.8 325.2 565.9 316.2 582.4 301.7ZM712.8 133.4H782.6V384H712.8V133.4ZM854.9 310.2C888.5 324.8 914.1 332.3 948.3 332.3C980.4 332.3 993 320.3 993 306.2C993 290.6 977.4 283.6 935.3 274.6C876.5 261.6 833.9 242.5 833.9 189.8C833.9 140.6 874.6 106.5 937.8 106.5C980.5 106.5 1014.6 116.5 1044.2 128.6L1021.1 179.8C994.5 169.8 963.4 162.2 936.3 162.2C909.7 162.2 896.2 171.7 896.2 186.3C896.2 201.4 912.8 208.4 956.4 217.4C1019.6 230.5 1056.3 252.5 1056.3 302.2C1056.3 353.9 1016.6 388 946.9 388C899.7 388 869.1 381.5 829 361.9L854.9 310.2ZM1340.7 333.3C1316.1 366.9 1277.5 388 1235.3 388C1153 388 1086.2 325.3 1086.2 247.5C1086.2 169.2 1152.9 106.5 1235.3 106.5C1279 106.5 1317.1 127.6 1341.7 160.7L1296.5 202.4C1282.9 181.9 1259.9 169.5 1235.3 169.3C1191.1 169.3 1155 204.4 1155 247.6C1155 290.3 1191.1 325.4 1235.3 325.4C1260.1 325.2 1283.1 312.6 1296.5 291.8L1340.7 333.3ZM1659.8 247.4C1659.8 325.2 1593.1 387.9 1510.7 387.9C1428.3 387.9 1361.6 325.2 1361.6 247.4C1361.6 169.1 1428.3 106.4 1510.7 106.4C1593.1 106.4 1659.8 169.1 1659.8 247.4ZM1591.1 247.4C1591.1 204.2 1555.5 169.1 1510.8 169.1C1466.6 169.1 1430.5 204.2 1430.5 247.4C1430.5 290.1 1466.6 325.2 1510.8 325.2C1555.4 325.2 1591.1 290.1 1591.1 247.4ZM1961.9 113.7V384H1892.1V365.9C1871.4 380 1845.9 388 1817.8 388C1738 388 1701.3 350.9 1701.3 262.5V113.7H1771.1V262.5C1771.1 304.7 1791.8 325.2 1830.3 325.2C1855.4 325.2 1876 317.2 1892 303.6V113.6H1961.9V113.7ZM2278.6 231.9V384H2208.8V231.9C2208.8 189.7 2188.1 169.2 2149.6 169.2C2125 169.2 2104.9 177.2 2089.4 190.8V384H2019.6V111.4H2089.4V128.5C2109.5 114.4 2134.6 106.4 2162.2 106.4C2241.9 106.4 2278.6 143.6 2278.6 231.9ZM2421 169.1V265.5C2421 314.2 2429 328.2 2464.2 328.2C2476.2 328.2 2486.8 326.7 2496.3 325.7V377.9C2493.3 378.9 2472.2 387.9 2433.1 387.9C2387.4 387.9 2350.8 359.3 2350.8 302.1V169.1H2312.2V111.4H2350.8V5.5H2421.1V111.4H2497.3V169.1H2421Z" fill="#293847"/>
<path d="M710.1 41.2C710.1 18.6 728.1 0 750.2 0C772.3 0 789.9 18.6 789.9 41.2C789.9 63.8 772.3 81.9 750.2 81.9C727.9 81.7 709.9 63.5 710.1 41.2Z" fill="#E23A05"/>
<rect x="54" y="6" width="69" height="383" fill="#E23A05"/>
</g>
<defs>
<clipPath id="clip0_39_6">
<rect width="2497.3" height="393" fill="white"/>
</clipPath>
</defs>
</svg>
